<svg width="558" height="492" viewBox="0 0 558 492" fill="none" xmlns="http://www.w3.org/2000/svg">
<path d="M279 0L284.549 152.648L308.164 1.34769L295.585 153.671L337.008 5.37596L306.439 155.705L365.216 12.0402L316.995 158.729L392.48 21.2673L327.132 162.709L418.5 32.9576L336.742 167.601L442.992 46.9818L345.721 173.352L465.687 63.1859L353.968 179.9L486.338 81.3942L361.393 187.171L504.716 101.405L367.916 195.087L520.621 123L373.464 203.561L533.88 145.943L377.978 212.5L544.345 169.982L381.407 221.806L551.903 194.854L383.715 231.376L556.471 220.286L384.874 241.108L558 246L384.874 250.892L556.471 271.714L383.715 260.624L551.903 297.146L381.407 270.194L544.345 322.018L377.978 279.5L533.88 346.057L373.464 288.439L520.621 369L367.916 296.913L504.716 390.595L361.393 304.829L486.338 410.606L353.968 312.1L465.687 428.814L345.721 318.648L442.992 445.018L336.742 324.399L418.5 459.042L327.132 329.291L392.48 470.733L316.995 333.271L365.216 479.96L306.439 336.295L337.008 486.624L295.585 338.329L308.164 490.652L284.549 339.352L279 492L273.451 339.352L249.836 490.652L262.415 338.329L220.992 486.624L251.561 336.295L192.784 479.96L241.005 333.271L165.52 470.733L230.868 329.291L139.5 459.042L221.258 324.399L115.008 445.018L212.279 318.648L92.3126 428.814L204.032 312.1L71.6626 410.606L196.607 304.829L53.2843 390.595L190.084 296.913L37.3789 369L184.536 288.439L24.1208 346.057L180.022 279.5L13.6552 322.018L176.593 270.194L6.09682 297.146L174.285 260.624L1.52839 271.714L173.126 250.892L0 246L173.126 241.108L1.52839 220.286L174.285 231.376L6.09682 194.854L176.593 221.806L13.6552 169.982L180.022 212.5L24.1208 145.943L184.536 203.561L37.3789 123L190.084 195.087L53.2843 101.405L196.607 187.171L71.6626 81.3942L204.032 179.9L92.3126 63.1859L212.279 173.352L115.008 46.9818L221.258 167.601L139.5 32.9576L230.868 162.709L165.52 21.2673L241.005 158.729L192.784 12.0402L251.561 155.705L220.992 5.37596L262.415 153.671L249.836 1.34769L273.451 152.648L279 0Z" fill="#ECE8D9"/>
</svg>
