<svg width="26" height="32" viewBox="0 0 26 32" fill="none" xmlns="http://www.w3.org/2000/svg">
<path d="M24.6615 12.2667C24.6615 17.0965 21.858 21.3396 17.6835 23.3371C17.6092 23.3727 17.5308 23.3895 17.4536 23.3895C16.8895 23.3895 16.7115 22.6198 17.2231 22.375C21.0937 20.5228 23.5948 16.5551 23.5948 12.2667C23.5948 11.9722 23.8336 11.7334 24.1281 11.7334C24.4227 11.7334 24.6615 11.9721 24.6615 12.2667ZM15.6615 25.1961C15.3669 25.1961 15.1281 25.4349 15.1281 25.7295V29.8667C15.1281 30.4548 14.6496 30.9333 14.0615 30.9333H10.7281C10.14 30.9333 9.6615 30.4548 9.6615 29.8667V26.5H13.0615C13.356 26.5 13.5948 26.2612 13.5948 25.9667C13.5948 25.6721 13.356 25.4333 13.0615 25.4333H9.6493C9.5443 24.1215 8.7488 22.9413 7.5621 22.3729C3.69414 20.5199 1.19481 16.553 1.19481 12.2667C1.19481 6.0822 6.19794 1.06667 12.3947 1.06667C14.4405 1.06667 16.4399 1.6172 18.1754 2.65993C18.4281 2.81167 18.7556 2.72993 18.9073 2.47747C19.0589 2.22493 18.9773 1.89733 18.7248 1.7456C16.8745 0.634 14.6936 0 12.3947 0C5.62181 0 0.128143 5.4794 0.128143 12.2667C0.128143 17.0947 2.92941 21.3363 7.1013 23.3348C8.0085 23.7695 8.5948 24.7093 8.5948 25.7293V29.8667C8.5948 31.043 9.5518 32 10.7281 32H14.0615C15.2378 32 16.1948 31.043 16.1948 29.8667V25.7295C16.1948 25.4349 15.9561 25.1961 15.6615 25.1961ZM21.9915 10.1323C22.3823 10.5231 22.3824 11.1556 21.9915 11.5465C21.6008 11.9372 20.9681 11.9373 20.5773 11.5465C20.1875 11.1566 20.1875 10.5222 20.5773 10.1323C20.968 9.74147 21.6007 9.74133 21.9915 10.1323ZM23.7357 9.14227C23.9441 8.934 23.9441 8.59633 23.7357 8.38807C22.381 7.03327 20.1881 7.03307 18.8331 8.38807C18.4961 8.72507 18.7395 9.29853 19.2103 9.29853C19.3467 9.29853 19.4833 9.24647 19.5874 9.14233C20.5253 8.2044 22.0434 8.20433 22.9815 9.14233C23.1897 9.35053 23.5275 9.35053 23.7357 9.14227ZM25.7157 6.4082C23.2665 3.95907 19.3026 3.9588 16.8533 6.4082C16.6449 6.61647 16.6449 6.95413 16.8533 7.1624C17.0616 7.37073 17.3992 7.37067 17.6075 7.1624C19.6397 5.1302 22.9289 5.12993 24.9614 7.1624C25.1697 7.37067 25.5073 7.37067 25.7156 7.1624C25.9239 6.95413 25.9239 6.61647 25.7157 6.4082ZM16.9948 14.5333C16.9948 15.6361 16.0976 16.5333 14.9948 16.5333H14.0615V22.6667C14.0615 22.9612 13.8227 23.2 13.5281 23.2C13.2336 23.2 12.9948 22.9612 12.9948 22.6667V16.5333H11.7948V23.3333C11.7948 23.6279 11.556 23.8667 11.2615 23.8667C10.9669 23.8667 10.7281 23.6279 10.7281 23.3333V16.5333H9.7948C8.692 16.5333 7.7948 15.6361 7.7948 14.5333C7.7948 13.4305 8.692 12.5333 9.7948 12.5333C10.8976 12.5333 11.7948 13.4305 11.7948 14.5333V15.4667H12.9948V14.5333C12.9948 13.4305 13.892 12.5333 14.9948 12.5333C16.0976 12.5333 16.9948 13.4305 16.9948 14.5333ZM9.7948 15.4667H10.7281V14.5333C10.7281 14.0187 10.3095 13.6 9.7948 13.6C9.2801 13.6 8.8615 14.0187 8.8615 14.5333C8.8615 15.048 9.2801 15.4667 9.7948 15.4667ZM15.9281 14.5333C15.9281 14.0187 15.5095 13.6 14.9948 13.6C14.4801 13.6 14.0615 14.0187 14.0615 14.5333V15.4667H14.9948C15.5095 15.4667 15.9281 15.048 15.9281 14.5333Z" fill="#9F9B8D"/>
</svg>
