<svg width="98" height="17" viewBox="0 0 98 17" fill="none" xmlns="http://www.w3.org/2000/svg">
<path fill-rule="evenodd" clip-rule="evenodd" d="M20.0034 1.01259L0.128996 8.93239C0.089096 8.94899 0.0557962 8.97839 0.0342962 9.01589C0.0116962 9.04979 -0.000205576 9.0897 -5.57558e-06 9.1304C-0.000405576 9.1712 0.0115962 9.21119 0.0342962 9.24499C0.0571962 9.27939 0.090296 9.3058 0.128996 9.3202L6.02979 11.4524C6.06139 11.4651 6.09579 11.469 6.12939 11.4638C6.16239 11.4586 6.1937 11.4457 6.2209 11.4262L17.4148 3.25439C17.4176 3.25319 17.4207 3.25249 17.4238 3.25249C17.4269 3.25249 17.4299 3.25319 17.4328 3.25439C17.439 3.25599 17.4447 3.25939 17.4491 3.26419C17.4502 3.26679 17.4507 3.26959 17.4507 3.27239C17.4507 3.27519 17.4502 3.278 17.4491 3.2806C17.4514 3.2863 17.4514 3.29279 17.4491 3.29859L7.54049 11.9335C7.51759 11.9534 7.49929 11.9779 7.48659 12.0055C7.47469 12.0333 7.46909 12.0635 7.47029 12.0938V16.6919C7.46909 16.7335 7.48169 16.7744 7.50619 16.8081C7.53069 16.8423 7.56479 16.8685 7.60419 16.8833C7.64359 16.8974 7.68639 16.8986 7.72659 16.8868C7.7668 16.8751 7.80219 16.851 7.82789 16.8179L10.6877 13.2867C10.7143 13.2544 10.7502 13.231 10.7905 13.2196C10.8309 13.2065 10.8743 13.2065 10.9147 13.2196L14.56 14.5434C14.6081 14.563 14.6621 14.563 14.7102 14.5434C14.7575 14.5216 14.7953 14.4832 14.8164 14.4354L20.268 1.27769C20.2826 1.24139 20.286 1.20149 20.2778 1.16319C20.2709 1.12399 20.2521 1.08799 20.2239 1.06009C20.1966 1.03119 20.1613 1.01129 20.1226 1.00279C20.0838 0.994394 20.0435 0.997794 20.0067 1.01259" fill="#485B60"/>
<path d="M26.2847 2.60852H24.4882L24.5143 13.5719H26.3108L26.2847 2.60852Z" fill="#485B60"/>
<path d="M31.9404 5.68317C31.0324 5.68317 30.2011 6.01037 29.6801 6.66497V5.84677H27.9865L28.006 13.5703H29.6997L29.6866 8.45667C29.8446 8.08767 30.1087 7.77416 30.4452 7.55616C30.7818 7.33816 31.1755 7.22557 31.5762 7.23277C32.6541 7.23277 33.2715 8.00017 33.2747 9.22087L33.2845 13.5703H34.9782L34.9667 8.95087C34.9667 6.95457 33.7876 5.68966 31.9404 5.69456" fill="#485B60"/>
<path d="M41.9748 5.81408L39.6296 11.227L37.2761 5.82708H35.3979L38.8963 13.5424H40.3906L43.8645 5.80908L41.9748 5.81408Z" fill="#485B60"/>
<path d="M48.0683 5.64552C47.0813 5.66192 46.1356 6.04512 45.4148 6.72092C44.694 7.39662 44.2496 8.31652 44.1678 9.30212C44.0859 10.2877 44.3726 11.2686 44.972 12.0544C45.5715 12.8401 46.4409 13.3746 47.4116 13.5542C48.3824 13.7337 49.385 13.5454 50.225 13.0259C51.0649 12.5064 51.6822 11.6927 51.957 10.7428C52.2317 9.79282 52.1444 8.77452 51.7119 7.88552C51.2794 6.99652 50.5326 6.30022 49.6165 5.93192C49.1248 5.73352 48.5983 5.63612 48.0683 5.64552ZM48.083 12.1025C46.7144 12.1025 45.7557 11.0421 45.754 9.66762C45.7524 8.29312 46.698 7.22462 48.0715 7.21312C49.4451 7.20172 50.3842 8.27512 50.3874 9.64962C50.3907 11.0241 49.4385 12.091 48.0879 12.0943L48.083 12.1025Z" fill="#485B60"/>
<path d="M55.0094 5.77637H53.3157L53.3369 13.4999H55.029L55.0094 5.77637Z" fill="#485B60"/>
<path d="M55.0094 2.79828H53.3157V4.36588H55.0094V2.79828Z" fill="#485B60"/>
<path d="M60.409 7.19019C60.854 7.18709 61.29 7.31329 61.665 7.55349C62.039 7.79359 62.337 8.13749 62.52 8.54349L63.99 7.73839C63.646 7.08579 63.128 6.54159 62.494 6.16609C61.86 5.79059 61.134 5.59849 60.397 5.61119C58.0944 5.61439 56.3469 7.35379 56.3469 9.64309C56.3469 11.9323 58.1189 13.6537 60.43 13.6504C61.166 13.6607 61.891 13.4659 62.523 13.0877C63.156 12.7095 63.671 12.1628 64.012 11.5085L62.532 10.7034C62.351 11.1109 62.055 11.4568 61.682 11.6991C61.308 11.9413 60.872 12.0696 60.427 12.0681C59.058 12.0681 58.0846 11.0078 58.0814 9.63319C58.0781 8.25869 59.047 7.19019 60.417 7.17879" fill="#485B60"/>
<path d="M68.906 5.59149C66.566 5.59149 64.885 7.34889 64.898 9.62019C64.898 11.9617 66.587 13.6324 68.923 13.6275C70.531 13.6275 71.74 12.9239 72.427 11.8276L71.14 10.9047C70.742 11.5838 70.015 12.0812 68.942 12.0845C67.665 12.0845 66.646 11.2549 66.566 9.98829L72.609 9.97359C72.623 9.72819 72.623 9.58739 72.623 9.41729C72.623 6.93329 70.92 5.59319 68.905 5.59639L68.906 5.59149ZM66.636 8.74959C66.865 7.60419 67.861 7.02989 68.849 7.02989C69.837 7.02989 70.727 7.62709 70.915 8.73819L66.636 8.74959Z" fill="#485B60"/>
<path d="M93.99 5.53101H93.93C93.404 5.52681 92.881 5.62761 92.394 5.82751C91.907 6.02741 91.464 6.32241 91.091 6.69531C90.719 7.06821 90.424 7.51161 90.224 7.99971C90.024 8.48771 89.923 9.01081 89.927 9.53831V9.55961C89.924 10.0884 90.026 10.6126 90.227 11.1015C90.428 11.5904 90.725 12.0342 91.099 12.407C91.473 12.7798 91.918 13.0741 92.407 13.2727C92.896 13.4713 93.42 13.5702 93.948 13.5637H93.977C94.505 13.571 95.028 13.4726 95.517 13.2742C96.006 13.0758 96.45 12.7814 96.824 12.4085C97.198 12.0359 97.493 11.5925 97.694 11.1043C97.895 10.616 97.997 10.0926 97.993 9.56451V9.53831C97.997 9.01161 97.895 8.48941 97.695 8.00231C97.495 7.51521 97.2 7.07281 96.827 6.70091C96.455 6.32841 96.013 6.03371 95.526 5.83391C95.04 5.63421 94.518 5.53341 93.992 5.53751L93.99 5.53101ZM93.971 11.9945C92.601 11.9945 91.645 10.9341 91.642 9.56121C91.639 8.18841 92.591 7.11661 93.958 7.10681C95.325 7.09691 96.27 8.16871 96.274 9.54321C96.277 10.9178 95.325 11.9846 93.971 11.9879V11.9945Z" fill="#485B60"/>
<path d="M86.995 5.7028V6.4129C86.455 5.8582 85.653 5.5522 84.73 5.5539C82.499 5.5539 80.886 7.2753 80.869 9.4418C80.859 9.9544 80.952 10.4638 81.142 10.9395C81.333 11.4153 81.618 11.8474 81.98 12.2101C82.341 12.5728 82.772 12.8585 83.247 13.05C83.722 13.2416 84.23 13.335 84.742 13.3248C85.668 13.3248 86.466 12.9975 87.004 12.4232V13.3379C87.004 14.5406 86.35 15.1837 85.465 15.38C83.26 15.776 81.89 15.11 81.89 15.11L81.35 16.4976C82.137 16.9885 84.578 17.1292 85.712 16.8789C87.345 16.5909 88.704 15.5207 88.699 13.3526L88.684 5.7011L86.995 5.7028ZM87.007 10.6772C86.788 11.0231 86.483 11.3054 86.121 11.4958C85.759 11.6862 85.354 11.778 84.946 11.7621C83.608 11.7621 82.635 10.7639 82.619 9.4369C82.61 9.1283 82.666 8.8213 82.782 8.5353C82.895 8.2486 83.065 7.9881 83.282 7.7695C83.498 7.5508 83.757 7.3786 84.042 7.2633C84.328 7.148 84.633 7.0919 84.941 7.0986C85.347 7.0824 85.75 7.1715 86.112 7.3573C86.474 7.543 86.781 7.8191 87.005 8.1589L87.007 10.6772Z" fill="#485B60"/>
<path d="M75.772 11.9945L78.082 8.85272C78.547 8.24241 79.29 7.21641 79.429 6.99221C80.072 5.92701 80.151 4.80772 79.592 3.69012C79.137 2.78032 78.331 2.33692 77.34 2.21742C75.95 2.04072 74.505 2.68542 73.852 4.00432C73.7 4.29141 73.6 4.60341 73.558 4.92551L75.039 5.25282C75.062 5.18902 75.083 5.13661 75.098 5.08921C75.168 4.81961 75.298 4.56921 75.478 4.35651C75.657 4.14391 75.883 3.97431 76.136 3.86031C76.677 3.61321 77.453 3.70982 77.871 4.07142C78.571 4.68172 78.562 5.70772 78.054 6.36222C77.969 6.47352 73.585 12.0697 73.585 12.0697C73.544 12.1186 73.522 12.1809 73.523 12.2448V13.4835L80.028 13.4672V11.9945H75.772Z" fill="#485B60"/>
</svg>
