<svg width="104" height="14" viewBox="0 0 104 14" fill="none" xmlns="http://www.w3.org/2000/svg">
<path d="M4.7617 12.8148L0 1.18518H2.4392L5.9247 9.86108L9.4308 1.18518H11.87L7.0843 12.8148H4.7617Z" fill="#485B60"/>
<path d="M13.9696 5.97778H21.1225C20.9153 5.19228 20.4543 4.49388 19.8086 3.98738C19.1782 3.47768 18.385 3.20218 17.5684 3.20938C16.7304 3.18868 15.9122 3.46078 15.2596 3.97728C14.6202 4.48928 14.1675 5.19138 13.9696 5.97778ZM13.2526 11.2588C12.6808 10.7078 12.2292 10.0484 11.9255 9.32048C11.6217 8.59268 11.4721 7.81168 11.4858 7.02528C11.4727 6.23748 11.62 5.45498 11.9193 4.72388C12.2186 3.99288 12.6638 3.32788 13.2286 2.76818C13.776 2.19608 14.4396 1.74308 15.1765 1.43858C15.9134 1.13398 16.7072 0.984582 17.5066 0.999982C19.0678 0.982382 20.5766 1.55238 21.7229 2.59298C22.3178 3.12418 22.793 3.77158 23.1179 4.49368C23.4429 5.21588 23.6104 5.99668 23.6097 6.78608C23.6117 7.13528 23.5888 7.48418 23.5411 7.83018H13.9696C14.0052 8.24028 14.1229 8.63938 14.316 9.00458C14.5091 9.36988 14.7738 9.69418 15.0949 9.95878C15.7644 10.515 16.6196 10.8089 17.4963 10.7839C18.0271 10.8027 18.5558 10.7086 19.0461 10.508C19.5364 10.3074 19.9767 10.0052 20.3369 9.62198L23.1089 9.64548C22.5935 10.6464 21.8064 11.488 20.8344 12.0772C19.8571 12.6856 18.7221 13.0048 17.565 12.9966C16.7633 13.0118 15.967 12.8655 15.2253 12.5665C14.4836 12.2676 13.8122 11.8225 13.2526 11.2588Z" fill="#485B60"/>
<path d="M25.1843 12.8148V6.75244C25.1843 4.89114 25.6417 3.49124 26.5566 2.55264C27.024 2.08184 27.5874 1.71304 28.2099 1.47044C28.8323 1.22784 29.4999 1.11694 30.1691 1.14484H30.4058V3.35764H30.1691C28.3988 3.35764 27.5149 4.48924 27.5172 6.75244V12.8148H25.1843Z" fill="#485B60"/>
<path d="M37.3426 3.20941C36.8327 3.19361 36.325 3.2828 35.8523 3.4713C35.3796 3.6599 34.9524 3.94351 34.5981 4.30401C33.8934 5.03041 33.5003 5.9951 33.5003 6.9983C33.5003 8.0015 33.8934 8.96621 34.5981 9.69271C34.9474 10.0518 35.3691 10.3355 35.8364 10.5257C36.3036 10.7159 36.8061 10.8084 37.3118 10.7974C37.8123 10.8097 38.3099 10.719 38.7726 10.531C39.2352 10.3431 39.6526 10.0621 39.9979 9.70621C40.6905 8.97361 41.0753 8.0112 41.0753 7.0118C41.0753 6.0124 40.6905 5.04991 39.9979 4.31741C39.6533 3.96041 39.2361 3.67841 38.7734 3.48981C38.3106 3.30131 37.8126 3.21031 37.3118 3.22291L37.3426 3.20941ZM32.9926 2.7446C33.9931 1.7595 35.3107 1.14561 36.7207 1.00741C38.1308 0.869206 39.546 1.21541 40.7251 1.98691C41.9042 2.75851 42.7744 3.90761 43.1871 5.23841C43.5998 6.56921 43.5297 7.9994 42.9886 9.2851C42.4475 10.5708 41.4689 11.6325 40.2197 12.2892C38.9705 12.9459 37.528 13.157 36.138 12.8865C34.748 12.6159 33.4966 11.8805 32.5971 10.8056C31.6976 9.73061 31.2057 8.38271 31.2052 6.99161C31.1925 6.20141 31.3445 5.4171 31.6519 4.6868C31.9592 3.9564 32.4155 3.2955 32.9926 2.7446Z" fill="#485B60"/>
<path d="M55.4529 12.8148H52.801L49.7443 8.65198L46.6876 12.8148H44.0117L48.4167 6.76928L44.3651 1.18518H46.9964L49.7203 4.90678L52.4923 1.18518H55.1236L51.072 6.76928L55.4529 12.8148Z" fill="#485B60"/>
<path d="M58.146 12.7777V8.88771H56.0225V7.54061H58.146V7.12631L58.1941 5.70841C58.3221 4.29611 58.7727 3.18691 59.5457 2.38091C60.3635 1.55671 61.4637 1.05981 62.633 0.986511V2.40781C61.8582 2.52471 61.1455 2.89351 60.6092 3.45521C60.0513 4.08291 59.7292 4.87931 59.6967 5.71181L59.6487 7.12971V7.54391H63.385V8.89111H59.6624V12.7811L58.146 12.7777Z" fill="#485B60"/>
<path d="M67.306 1.1886H65.79V12.8181H67.306V1.1886Z" fill="#485B60"/>
<path d="M79.22 3.75501C78.801 3.32371 78.294 2.98301 77.733 2.75461C77.172 2.52611 76.569 2.41491 75.961 2.42801C75.351 2.41721 74.745 2.5294 74.181 2.7576C73.617 2.9859 73.107 3.32531 72.682 3.75501C71.82 4.62551 71.339 5.79141 71.339 7.00501C71.339 8.21871 71.82 9.38461 72.682 10.2551C73.103 10.6882 73.611 11.0313 74.173 11.2631C74.736 11.4949 75.341 11.6103 75.951 11.6023C76.556 11.6136 77.157 11.5019 77.717 11.2741C78.276 11.0463 78.781 10.7074 79.2 10.2787C80.047 9.39831 80.519 8.23311 80.519 7.02191C80.519 5.81071 80.047 4.6454 79.2 3.7651L79.22 3.75501ZM71.615 2.7446C72.615 1.7595 73.933 1.14561 75.343 1.00741C76.753 0.869206 78.168 1.21541 79.347 1.98691C80.526 2.75851 81.397 3.90761 81.809 5.23841C82.222 6.56921 82.152 7.9994 81.611 9.2851C81.07 10.5708 80.091 11.6325 78.842 12.2892C77.593 12.9459 76.15 13.157 74.76 12.8865C73.37 12.6159 72.119 11.8805 71.219 10.8056C70.32 9.73061 69.828 8.38271 69.827 6.99161C69.815 6.20141 69.967 5.4171 70.274 4.6868C70.581 3.9564 71.038 3.2955 71.615 2.7446Z" fill="#485B60"/>
<path d="M93.928 3.75501C93.508 3.32371 93.001 2.98301 92.44 2.75461C91.879 2.52611 91.276 2.41491 90.668 2.42801C90.058 2.41721 89.453 2.5294 88.888 2.7576C88.324 2.9859 87.814 3.32531 87.389 3.75501C86.527 4.62551 86.046 5.79141 86.046 7.00501C86.046 8.21871 86.527 9.38461 87.389 10.2551C87.81 10.6885 88.318 11.0318 88.88 11.2636C89.443 11.4955 90.048 11.6107 90.658 11.6023C91.263 11.614 91.864 11.5024 92.422 11.2745C92.981 11.0467 93.485 10.7076 93.904 10.2787C94.752 9.39871 95.224 8.23331 95.224 7.02191C95.224 5.81051 94.752 4.6451 93.904 3.7651L93.928 3.75501ZM86.325 2.7446C87.326 1.7595 88.643 1.14561 90.053 1.00741C91.463 0.869206 92.879 1.21541 94.058 1.98691C95.237 2.75851 96.107 3.90761 96.52 5.23841C96.932 6.56921 96.862 7.9994 96.321 9.2851C95.78 10.5708 94.802 11.6325 93.552 12.2892C92.303 12.9459 90.861 13.157 89.471 12.8865C88.081 12.6159 86.829 11.8805 85.93 10.8056C85.03 9.73061 84.538 8.38271 84.538 6.99161C84.525 6.20141 84.677 5.41701 84.984 4.6867C85.292 3.9563 85.748 3.2954 86.325 2.7446Z" fill="#485B60"/>
<path d="M98.549 12.8148V6.7861C98.549 4.9113 98.987 3.5001 99.863 2.5526C100.313 2.0782 100.862 1.7056 101.474 1.4608C102.085 1.2159 102.744 1.1046 103.403 1.1347C103.518 1.133 103.633 1.1397 103.746 1.1549V2.5762C103.633 2.5579 103.518 2.55 103.403 2.5526C102.94 2.5339 102.479 2.6208 102.055 2.8066C101.632 2.9925 101.259 3.2721 100.964 3.6236C100.365 4.3354 100.065 5.3896 100.065 6.7861V12.8148H98.549Z" fill="#485B60"/>
<path d="M102.449 11.5215H102.707C102.794 11.5304 102.882 11.5115 102.957 11.4676C102.979 11.4509 102.996 11.4293 103.007 11.4047C103.019 11.3801 103.024 11.3531 103.022 11.3261C103.023 11.2902 103.012 11.255 102.991 11.2251C102.969 11.1948 102.938 11.1715 102.902 11.1577C102.833 11.1408 102.761 11.134 102.689 11.1375H102.449V11.5215ZM102.237 12.2456V10.9624H102.689C102.805 10.9563 102.921 10.9676 103.033 10.9961C103.099 11.0199 103.157 11.0634 103.197 11.1207C103.237 11.1761 103.258 11.2418 103.259 11.3093C103.26 11.355 103.251 11.4003 103.233 11.4426C103.216 11.4849 103.189 11.5232 103.156 11.5552C103.082 11.6257 102.984 11.6665 102.882 11.6697C102.924 11.6857 102.962 11.7097 102.995 11.7404C103.068 11.8178 103.132 11.9024 103.187 11.993L103.348 12.2456H103.091L102.974 12.0435C102.92 11.9306 102.844 11.8289 102.751 11.7438C102.702 11.7105 102.643 11.695 102.583 11.7H102.449V12.2456H102.237ZM102.772 10.5886C102.597 10.5902 102.426 10.6354 102.274 10.7199C102.114 10.8031 101.981 10.9307 101.894 11.087C101.804 11.2383 101.756 11.4103 101.756 11.5855C101.757 11.759 101.803 11.9296 101.89 12.0806C101.977 12.2359 102.108 12.3633 102.267 12.4477C102.42 12.5359 102.594 12.5824 102.772 12.5824C102.949 12.5824 103.123 12.5359 103.276 12.4477C103.435 12.3633 103.566 12.2359 103.653 12.0806C103.738 11.9287 103.783 11.7586 103.784 11.5855C103.784 11.4108 103.738 11.239 103.65 11.087C103.561 10.9314 103.429 10.8041 103.269 10.7199C103.124 10.6387 102.96 10.5936 102.792 10.5886H102.772ZM102.772 10.3932C102.981 10.394 103.186 10.4461 103.369 10.5448C103.56 10.6464 103.719 10.7994 103.825 10.986C103.929 11.1693 103.985 11.3755 103.986 11.5855C103.987 11.7936 103.931 11.9981 103.825 12.1782C103.722 12.3661 103.566 12.5206 103.376 12.6228C103.191 12.7243 102.983 12.7776 102.772 12.7776C102.56 12.7776 102.352 12.7243 102.168 12.6228C101.982 12.5168 101.83 12.3616 101.729 12.1749C101.622 11.9936 101.566 11.788 101.566 11.5787C101.566 11.3695 101.622 11.1639 101.729 10.9826C101.835 10.7961 101.994 10.6431 102.185 10.5414C102.371 10.4422 102.58 10.3912 102.792 10.3932H102.772Z" fill="#485B60"/>
</svg>
