<svg width="72" height="17" viewBox="0 0 72 17" fill="none" xmlns="http://www.w3.org/2000/svg">
<path d="M17.6694 3.33335L13.3665 0.391354C12.9998 0.141054 12.561 0.00665283 12.1111 0.00665283C11.6611 0.00665283 11.2223 0.141054 10.8556 0.391354L9.4547 1.34815L7.9317 2.38645L6.5527 3.33335C6.2719 3.52586 6.0429 3.77975 5.8847 4.07415C5.7266 4.36845 5.6438 4.69476 5.6432 5.02596V10.9877C5.6434 11.0646 5.6249 11.1405 5.5892 11.2093C5.5535 11.2781 5.5015 11.3379 5.4374 11.384L3.944 12.3717L5.3744 13.347L6.3829 12.6791C6.6638 12.487 6.8928 12.2333 7.051 11.9391C7.2092 11.6449 7.2919 11.3188 7.2924 10.9877V5.02596C7.2925 4.94686 7.3122 4.86895 7.3498 4.79865C7.3873 4.72825 7.4417 4.66735 7.5085 4.62105L11.8113 1.68025C11.8987 1.62015 12.0035 1.58785 12.1111 1.58785C12.2186 1.58785 12.3234 1.62015 12.4108 1.68025L13.5338 2.44695L14.9629 3.42225L16.7149 4.61975C16.7824 4.66556 16.8373 4.72625 16.8752 4.79675C16.913 4.86725 16.9326 4.94545 16.9323 5.02475V10.9877C16.9324 11.0668 16.9127 11.1448 16.8749 11.215C16.8371 11.2853 16.7822 11.3458 16.7149 11.3914L12.4108 14.3211C12.3162 14.3836 12.2031 14.4151 12.0883 14.4108C11.9736 14.4066 11.8633 14.3669 11.774 14.2976L10.9546 13.8038L9.5126 14.8026L10.8556 15.6149C11.2222 15.8654 11.661 16 12.1111 16C12.5611 16 12.9999 15.8654 13.3665 15.6149L17.6694 12.6742C17.9496 12.4825 18.1782 12.2296 18.3363 11.9364C18.4945 11.6431 18.5776 11.3179 18.5789 10.9877V5.02596C18.5787 4.69476 18.4961 4.36825 18.3379 4.07385C18.1797 3.77945 17.9505 3.52555 17.6694 3.33335Z" fill="#485B60"/>
<path d="M10.6446 13.6176L12.0262 12.6731C12.3062 12.4813 12.5347 12.2284 12.6928 11.9352C12.8509 11.642 12.9341 11.3169 12.9356 10.9867V5.02503C12.9354 4.94783 12.954 4.87163 12.9899 4.80263C13.0259 4.73353 13.0782 4.67363 13.1427 4.62743L14.6323 3.63983L13.2032 2.66453L12.196 3.33113C11.9152 3.52363 11.6864 3.77763 11.5284 4.07193C11.3705 4.36633 11.288 4.69263 11.2878 5.02373V10.9867C11.2879 11.0658 11.2682 11.1437 11.2303 11.214C11.1925 11.2842 11.1377 11.3447 11.0704 11.3904L6.7675 14.32C6.6801 14.3801 6.5753 14.4125 6.4678 14.4125C6.3603 14.4125 6.2555 14.3801 6.1681 14.32L5.0451 13.5534L3.6185 12.5818L1.8665 11.3842C1.8001 11.3392 1.7458 11.2796 1.708 11.2105C1.6702 11.1414 1.65 11.0647 1.6491 10.9867V5.02503C1.6487 4.94583 1.6681 4.86773 1.7057 4.79723C1.7433 4.72673 1.798 4.66603 1.8652 4.62003L6.1681 1.67933C6.2635 1.61593 6.3778 1.58393 6.4937 1.58813C6.6097 1.59243 6.7211 1.63263 6.8113 1.70273L7.6062 2.18553L9.0662 1.19783L7.7284 0.387932C7.3618 0.137532 6.923 0.00292969 6.473 0.00292969C6.0229 0.00292969 5.5841 0.137532 5.2175 0.387932L0.9095 3.33243C0.6283 3.52463 0.399098 3.77843 0.240898 4.07293C0.0826981 4.36733 0.0001 4.69373 0 5.02503V10.9867C0.0002 11.3179 0.0829003 11.6443 0.2411 11.9387C0.3993 12.2331 0.6284 12.487 0.9095 12.6793L5.2123 15.62C5.5789 15.8705 6.0178 16.0051 6.4678 16.0051C6.9178 16.0051 7.3567 15.8705 7.7233 15.62L9.1936 14.6151L10.6433 13.6274L10.6446 13.6176Z" fill="#485B60"/>
<path d="M28.5109 1.88025H25.3027V3.70375C25.3028 3.90955 25.2192 4.10715 25.0698 4.25475C24.9204 4.40235 24.7169 4.48805 24.5026 4.49385L23.6484 4.51485V6.94825H25.3027V11.3162C25.3027 14.0766 26.4411 14.9704 31.2007 14.6728V12.1667C28.7797 12.4049 28.5932 11.7691 28.5932 10.9951V6.94445H31.2007V4.46175H28.5109V1.88025Z" fill="#485B60"/>
<path d="M41.4194 0.221008C40.2617 0.221008 39.6262 0.467908 39.6262 1.78031C39.6262 3.09261 40.2591 3.33951 41.4194 3.33951C42.5604 3.33951 43.156 3.06051 43.156 1.78031C43.156 0.463008 42.5604 0.221008 41.4194 0.221008Z" fill="#485B60"/>
<path d="M43.0363 4.46173H39.787V14.5901H43.0363V4.46173Z" fill="#485B60"/>
<path d="M51.395 4.28274C49.76 4.28274 48.726 4.81854 48.229 5.43464V0.549438H45.0225V14.5901C45.0585 14.5901 45.0932 14.5901 45.1292 14.5827H45.2733C45.6324 14.5825 45.9839 14.4837 46.286 14.298C46.589 14.1123 46.83 13.8474 46.98 13.5346V13.5272C47.006 13.4741 47.046 13.4283 47.096 13.3941C47.146 13.3598 47.204 13.3383 47.264 13.3315C47.325 13.3247 47.387 13.3329 47.443 13.3552C47.5 13.3776 47.549 13.4134 47.587 13.4593C48.202 14.1741 49.059 14.6012 50.276 14.7173C50.529 14.7509 50.784 14.7682 51.039 14.7691C52.88 14.7691 54.05 14.0222 54.751 12.942C54.79 12.8839 54.828 12.8185 54.864 12.7642L54.936 12.6333C54.989 12.537 55.038 12.4395 55.084 12.3383L55.117 12.2642C55.171 12.1407 55.218 12.0173 55.263 11.8938C55.263 11.8802 55.272 11.8667 55.276 11.8531C55.321 11.721 55.362 11.5864 55.397 11.4494C55.397 11.4321 55.406 11.4173 55.41 11.4012C55.438 11.2864 55.464 11.1704 55.486 11.0518C55.495 11.0049 55.505 10.958 55.514 10.9111C55.523 10.8642 55.524 10.837 55.531 10.8C55.6 10.3719 55.636 9.93944 55.637 9.50624C55.637 6.90374 54.665 4.28274 51.395 4.28274ZM50.299 12.2062C48.498 12.2062 48.209 11.1148 48.209 9.50624C48.209 7.95684 48.436 6.82474 50.279 6.82474C52.037 6.82474 52.326 7.93584 52.326 9.50624C52.326 11.0938 52.037 12.2062 50.299 12.2062Z" fill="#485B60"/>
<path d="M61.762 4.28271C57.913 4.28271 57.002 5.77162 57.002 7.93702H60.147C60.147 7.12222 60.519 6.52721 61.844 6.52721C63.251 6.52721 63.707 7.14441 63.707 8.31361L60.933 8.59142C57.975 8.89012 56.588 9.70252 56.588 11.6506C56.588 13.7753 58.492 14.7691 60.975 14.7691C62.581 14.7691 63.645 14.321 64.373 13.4741C64.411 13.4279 64.461 13.3919 64.518 13.3693C64.574 13.3468 64.636 13.3385 64.697 13.3454C64.758 13.3522 64.816 13.3738 64.866 13.4082C64.916 13.4426 64.956 13.4887 64.982 13.542C65.132 13.8548 65.373 14.1197 65.676 14.3054C65.978 14.4911 66.33 14.5899 66.689 14.5901H66.934V8.85062C66.932 6.22842 66.264 4.28271 61.762 4.28271ZM61.633 12.5839C60.454 12.5839 59.961 12.1469 59.961 11.5309C59.961 11.0543 60.355 10.6975 61.633 10.5778L63.703 10.3395C63.684 11.5914 63.083 12.5839 61.633 12.5839Z" fill="#485B60"/>
<path d="M72 0.549438H68.773V14.5901H72V0.549438Z" fill="#485B60"/>
<path d="M38.6834 4.26672C38.5792 4.26672 38.4827 4.27412 38.3824 4.27782C37.5605 4.23042 36.7456 4.44772 36.0669 4.89512C35.7736 5.07642 35.5111 5.30002 35.2887 5.55802C35.2503 5.60382 35.2004 5.63952 35.1437 5.66182C35.087 5.68402 35.0253 5.69202 34.9645 5.68512C34.9037 5.67822 34.8457 5.65662 34.796 5.62222C34.7462 5.58792 34.7064 5.54202 34.6802 5.48892C34.5284 5.17562 34.2862 4.91072 33.9823 4.72562C33.6783 4.54052 33.3255 4.44292 32.9655 4.44442H32.7198V4.46792H32.7108V14.5914H35.9383V9.40622C35.9383 8.05562 36.3113 6.76542 38.7323 7.00372V4.30252H38.6885C38.6873 4.28022 38.686 4.26672 38.6834 4.26672Z" fill="#485B60"/>
</svg>
