<svg width="96" height="20" viewBox="0 0 96 20" fill="none" xmlns="http://www.w3.org/2000/svg">
<path d="M8.8172 4.50161C8.7617 4.42851 8.6986 4.39001 8.6283 4.39001C8.5766 4.39201 8.5265 4.40861 8.4837 4.43771C7.9511 4.85621 7.2223 6.62772 6.625 8.96262L7.1537 8.96872C8.1981 8.98032 9.2763 8.99282 10.3425 9.00882C10.0613 7.93932 9.7957 7.02291 9.5523 6.28271C9.1964 5.20161 8.9561 4.71731 8.8172 4.50161Z" fill="#485B60"/>
<path d="M10.0032 0C4.47879 0 0.000488281 4.4771 0.000488281 10C0.000488281 15.5229 4.47879 20 10.0032 20C15.5275 20 20.0058 15.5229 20.0058 10C20.0058 4.4771 15.5271 0 10.0032 0ZM17.1938 10.1815L17.1914 10.1835C17.1806 10.1924 17.1697 10.2004 17.1581 10.2084L17.1468 10.2161L17.1235 10.2301L17.1019 10.2426C17.0259 10.2824 16.9414 10.3032 16.8556 10.3032H12.1178C12.1555 10.4602 12.1981 10.6386 12.2419 10.8325C12.5014 11.9542 13.1916 14.9337 13.9243 14.9337H13.94H13.948H13.9621C14.5345 14.9337 14.8265 14.1064 15.4669 12.2936L15.4745 12.2715C15.5773 11.9803 15.6934 11.6518 15.8192 11.3044L15.8513 11.2157C15.8703 11.1656 15.9062 11.1237 15.9529 11.0973C15.9995 11.0709 16.0539 11.0617 16.1067 11.0712C16.1594 11.0808 16.2072 11.1085 16.2416 11.1495C16.276 11.1906 16.295 11.2424 16.2952 11.296C16.2951 11.3183 16.2919 11.3405 16.2856 11.3618L16.2591 11.451C16.1924 11.6667 16.1213 11.9606 16.0393 12.3008C15.6577 13.8819 15.0812 16.2707 13.6021 16.2707H13.5913C12.6356 16.2631 12.0648 14.7357 11.8193 14.0835C11.3626 12.8639 11.0159 11.5643 10.6837 10.3056H6.32109L5.41559 13.2008L5.40229 13.1904C5.34899 13.2744 5.26989 13.339 5.17679 13.3743C5.08369 13.4096 4.98169 13.4138 4.88599 13.3863C4.79039 13.3587 4.70619 13.3009 4.64619 13.2215C4.58609 13.1421 4.55349 13.0453 4.55309 12.9458V12.9301L4.60769 12.6024C4.73269 11.8578 4.88249 11.0851 5.05359 10.304H3.21419L3.20739 10.2972C3.04319 10.2719 2.89339 10.1888 2.78499 10.0629C2.67669 9.937 2.61689 9.7765 2.61639 9.6104C2.61559 9.4481 2.67189 9.2907 2.77569 9.1658C2.87939 9.0409 3.02389 8.9566 3.18369 8.9277C3.25519 8.9201 3.32709 8.9171 3.39899 8.9185C3.42549 8.9185 3.45519 8.9185 3.48859 8.9185C4.07229 8.9285 4.69369 8.9378 5.37099 8.9466C6.33229 5.0414 7.44589 3.059 8.68109 3.0534C10.0068 3.0534 10.9898 6.0703 11.7767 9.0217L11.7799 9.0333C13.3968 9.0659 15.1202 9.1137 16.7957 9.2341L16.866 9.2406C16.893 9.2411 16.9198 9.2435 16.9464 9.2478H16.956L16.9645 9.2498H16.9689C17.0673 9.2698 17.158 9.3172 17.2304 9.3867C17.3029 9.4562 17.3541 9.5449 17.3781 9.6424C17.4021 9.7398 17.3979 9.8421 17.366 9.9373C17.3341 10.0324 17.2758 10.1166 17.1979 10.1799L17.1938 10.1815Z" fill="#485B60"/>
<path d="M25.5563 12.502L24.7633 14.461H22.4595L26.843 4.23169H28.8777L33.2459 14.4614H30.9561L30.1631 12.5024H25.5563V12.502ZM27.8461 6.81889L26.3501 10.543H29.3718L27.8461 6.81889Z" fill="#485B60"/>
<path d="M46.2305 10.5281V14.4614H44.1513V10.7076C44.1513 9.57112 43.5977 8.95782 42.6248 8.95782C42.1909 8.95782 41.7121 9.15222 41.2782 9.75062C41.3137 10.0083 41.3337 10.268 41.3381 10.5281V14.4614H39.2596V10.7076C39.2596 9.57112 38.706 8.95782 37.7186 8.95782C37.3169 8.95782 36.8658 9.19882 36.4472 9.76552V14.4614H34.3679V7.29762H36.4472V7.73132C36.8959 7.31242 37.3747 7.07312 38.2123 7.07312C39.125 7.07312 39.9325 7.43212 40.5021 8.09002C41.2653 7.38712 41.9832 7.07312 43.1052 7.07312C44.8543 7.07312 46.2305 8.43412 46.2305 10.5281Z" fill="#485B60"/>
<path d="M55.3707 10.8868C55.3707 12.9655 53.7852 14.6104 51.8103 14.6104C51.0025 14.6104 50.3292 14.4012 49.7761 14.0422V17.9157H47.6968V7.29723H49.7761V7.71613C50.3296 7.35703 51.0029 7.14783 51.8103 7.14783C53.7848 7.14823 55.3707 8.77833 55.3707 10.8868ZM53.322 10.8868C53.322 9.82493 52.5443 8.89762 51.4669 8.89762C50.8535 8.89762 50.24 9.10683 49.7765 9.73493V12.0241C50.24 12.6374 50.8535 12.8466 51.4669 12.8466C52.5447 12.8454 53.3212 11.9337 53.3212 10.8868H53.322Z" fill="#485B60"/>
<path d="M58.616 14.4611H56.5371V3.84302H58.616V14.4611Z" fill="#485B60"/>
<path d="M60.4869 4.77032C60.4869 4.06752 61.0399 3.54382 61.7429 3.54382C62.4309 3.54382 62.9849 4.06592 62.9849 4.77032C62.9849 5.45822 62.4309 5.96672 61.7429 5.96672C61.0399 5.96672 60.4869 5.45822 60.4869 4.77032ZM62.7899 7.29762V14.4614H60.7109V7.29762H62.7899Z" fill="#485B60"/>
<path d="M70.3439 14.3566C69.4769 14.6257 69.0879 14.6856 68.4159 14.6856C66.6809 14.6856 65.5439 13.459 65.5439 11.6048V9.04737H64.0339V7.29757H65.5449V4.74017H67.6089V7.29757H70.1969V9.04737H67.6089V11.59C67.6089 12.3976 68.1029 12.7715 68.8649 12.7715C69.2539 12.7715 69.6729 12.6819 70.0769 12.5771L70.3439 14.3566Z" fill="#485B60"/>
<path d="M78.692 14.461H76.613V13.9526C76.029 14.4161 75.371 14.6855 74.564 14.6855C72.679 14.6855 71.422 13.3245 71.422 11.2458V7.29761H73.502V11.0514C73.502 12.1879 74.07 12.8012 75.043 12.8012C75.565 12.8012 76.134 12.4871 76.613 11.904V7.29761H78.693L78.692 14.461Z" fill="#485B60"/>
<path d="M87.518 14.4611H85.439V14.0422C84.885 14.4012 84.212 14.6104 83.404 14.6104C81.43 14.6104 79.829 12.9803 79.829 10.8715C79.829 8.79282 81.43 7.14742 83.404 7.14742C84.212 7.14742 84.885 7.35662 85.439 7.71572V3.84302H87.518V14.4611ZM85.439 12.0237V9.73452C84.975 9.12132 84.362 8.91212 83.748 8.91212C82.656 8.91212 81.893 9.82452 81.893 10.8711C81.893 11.9329 82.656 12.8602 83.748 12.8602C84.36 12.8611 84.975 12.6518 85.439 12.0237Z" fill="#485B60"/>
<path d="M95.955 11.4104H90.675C90.839 12.2478 91.393 12.906 92.53 12.906C93.113 12.906 93.517 12.7265 93.741 12.3675H95.911C95.522 13.7434 94.175 14.6855 92.485 14.6855C90.181 14.6855 88.625 13.0257 88.625 10.8867C88.625 8.67347 90.166 7.07147 92.425 7.07147C94.474 7.07147 96 8.52207 96 10.7357C96.003 10.9615 95.988 11.1871 95.955 11.4104ZM90.689 10.1839H93.936C93.815 9.28667 93.277 8.79317 92.44 8.79317C91.437 8.79317 90.884 9.37627 90.689 10.1839Z" fill="#485B60"/>
</svg>
