<svg width="113" height="12" viewBox="0 0 113 12" fill="none" xmlns="http://www.w3.org/2000/svg">
<path d="M0.127573 0.333521C0.391773 -0.126479 1.00457 -0.00387812 1.41177 0.183222C4.36557 1.40892 7.30847 2.66632 10.2473 3.92492C10.9963 4.13322 10.6558 5.00962 10.6558 5.55662C9.03517 5.57372 7.41327 5.55662 5.79137 5.56972C5.34337 5.55132 4.81087 5.64622 4.47317 5.28372C3.13987 4.05802 1.85297 2.77962 0.549773 1.52892C0.243273 1.22312 -0.206129 0.772421 0.132971 0.333521H0.127573ZM19.4341 0.83172C20.1477 0.55362 20.83 0.17272 21.5871 0.0132199C22.061 -0.0842801 22.268 0.39282 22.4995 0.68672C21.4972 2.12202 20.0564 3.19082 18.8363 4.44822C18.3065 4.90282 17.8408 5.65672 17.0318 5.56842C15.2819 5.56842 13.532 5.55792 11.7793 5.56842C11.6676 5.06102 11.3898 4.25972 12.0381 3.98692C14.4893 2.91672 16.9665 1.87812 19.4341 0.835623V0.83172ZM33.9307 1.04652C34.0668 0.724922 34.4441 0.846223 34.7178 0.813223C37.1228 0.827723 39.5264 0.813219 41.9354 0.822519C43.4334 0.846219 44.8061 2.00862 44.9982 3.44912C45.2909 5.10842 43.8815 6.82972 42.1383 6.90482C40.0847 6.94702 38.0284 6.87712 35.9761 6.93122C35.5757 7.98562 36.0387 9.22572 35.7419 10.3302C35.2067 10.7256 34.5952 11.1276 33.8952 11.1566C33.8952 9.32852 33.9143 7.49922 33.9048 5.67122C33.8803 5.41952 33.9415 4.99512 34.3133 5.06362C36.7959 5.03202 39.2812 5.07812 41.7638 5.04912C42.3739 5.08212 43.029 4.63662 43.0494 4.01592C43.1856 3.29232 42.5047 2.65312 41.7747 2.67812C39.1873 2.63202 36.5998 2.72162 34.026 2.63992C33.8272 2.13652 33.8898 1.57372 33.9361 1.04652H33.9307ZM56.0697 11.1473C56.0575 7.70482 56.0166 4.25972 56.0915 0.818522C59.8052 0.831722 63.523 0.79082 67.237 0.83832C67.036 1.48012 66.783 2.21552 66.223 2.62812C63.4848 2.72562 60.7312 2.64522 57.9872 2.66502C57.9722 3.45572 57.9736 4.26232 57.9776 5.06232C60.6577 5.05442 63.3387 5.05442 66.021 5.06232C66.059 5.67522 66.06 6.29202 66.04 6.90752C63.3514 6.93382 60.6659 6.90752 57.9776 6.92062C57.9776 7.71142 57.9776 8.50222 57.9776 9.29302C60.5651 9.28372 63.143 9.29302 65.725 9.29302C66.678 9.23762 66.839 10.3921 67.301 10.9747C67.055 11.1178 66.77 11.1879 66.484 11.1763C63.0123 11.1618 59.5383 11.1948 56.0684 11.1592L56.0697 11.1473ZM78.254 0.894922C78.526 0.620822 78.788 1.01882 79.031 1.12432C81.925 3.28312 84.835 5.41822 87.722 7.58232C87.765 5.65942 87.668 3.73252 87.765 1.81492C88.198 1.27192 88.907 1.00962 89.553 0.76972C89.698 1.16512 89.669 1.58952 89.673 2.00202C89.645 4.95422 89.692 7.91042 89.651 10.8627C89.756 11.3279 89.176 11.1869 88.97 10.972C86.022 8.78562 83.085 6.58192 80.129 4.40602C80.092 6.34212 80.194 8.28472 80.085 10.2169C79.658 10.744 78.91 11.0722 78.216 11.1842C78.186 8.12132 78.216 5.05842 78.197 1.99412C78.184 1.62592 78.203 1.25742 78.254 0.892321V0.894922ZM100.792 4.77372C101.328 2.49762 103.629 0.761822 106.042 0.826422C107.948 0.863322 109.848 0.755222 111.745 0.879122C111.726 1.54732 111.289 2.12722 110.872 2.63072C109.143 2.78092 107.393 2.57932 105.662 2.72032C104.243 2.88902 102.978 3.94472 102.666 5.30222C102.159 7.14732 103.727 9.17432 105.682 9.28242C107.153 9.30882 108.625 9.28242 110.097 9.28242C110.097 8.49162 110.097 7.70882 110.097 6.92202C108.998 6.90612 107.896 6.94832 106.797 6.91142C106.325 6.96152 106.167 6.43042 105.948 6.12992C105.812 5.80432 105.452 5.47092 105.634 5.09922C107.421 5.00562 109.216 5.09922 111.007 5.05572C111.331 5.09792 111.753 4.95422 111.994 5.24162C112.045 7.20002 111.994 9.16252 112.012 11.1223C110.662 11.2132 109.309 11.1526 107.959 11.1671C106.554 11.1473 105.064 11.3292 103.766 10.6795C101.497 9.72262 100.137 7.09462 100.799 4.77112L100.792 4.77372ZM4.43227 6.72562C4.78087 6.35392 5.32967 6.45142 5.79407 6.43302C7.42827 6.45802 9.05427 6.41192 10.683 6.46332C10.698 6.96552 10.9799 7.75622 10.3521 8.01062C7.80277 9.11902 5.23987 10.1958 2.67827 11.2804C2.00957 11.544 1.35997 11.9078 0.635474 12C0.270574 11.8933 -0.0549277 11.5572 0.0185723 11.1631C0.246072 10.665 0.688672 10.3065 1.07407 9.92292C2.20567 8.86862 3.27877 7.75232 4.43907 6.72562H4.43227ZM11.7357 6.46202C13.4339 6.43042 15.1403 6.46202 16.833 6.44092C17.1871 6.46732 17.6133 6.39482 17.8871 6.66762C19.1331 7.79442 20.322 8.97802 21.5381 10.1338C21.8513 10.4607 22.219 10.7638 22.3892 11.1882C22.4873 11.7602 21.7628 12.2056 21.2521 11.8999C18.1785 10.6742 15.1484 9.34042 12.1089 8.03962C11.4103 7.80762 11.6649 6.99182 11.7357 6.46462" fill="#485B60"/>
</svg>
