<svg width="129" height="40" viewBox="0 0 129 40" fill="none" xmlns="http://www.w3.org/2000/svg">
<path d="M40 0H0V40H40V0Z" fill="#ECE8D9"/>
<path d="M20 6L20.8509 15.1744L24.7883 6.8443L22.45 15.7565L28.999 9.27538L23.7536 16.8503L32.1244 13L24.6045 18.3241L33.7873 17.5689L24.9 20L33.7873 22.4311L24.6045 21.6759L32.1244 27L23.7536 23.1497L28.999 30.7246L22.45 24.2435L24.7883 33.1557L20.8509 24.8256L20 34L19.1491 24.8256L15.2117 33.1557L17.55 24.2435L11.001 30.7246L16.2464 23.1497L7.87564 27L15.3955 21.6759L6.21269 22.4311L15.1 20L6.21269 17.5689L15.3955 18.3241L7.87564 13L16.2464 16.8503L11.001 9.27538L17.55 15.7565L15.2117 6.8443L19.1491 15.1744L20 6Z" fill="#1C3F3A"/>
<path d="M58.4688 22.8438L61.8555 10.9375H63.4961L62.5469 15.5664L58.9023 28H57.2734L58.4688 22.8438ZM54.9648 10.9375L57.6602 22.6094L58.4688 28H56.8516L52.7148 10.9375H54.9648ZM67.8789 22.5977L70.5156 10.9375H72.7773L68.6523 28H67.0352L67.8789 22.5977ZM63.7422 10.9375L67.0352 22.8438L68.2305 28H66.6016L63.0859 15.5664L62.125 10.9375H63.7422ZM78.3125 15.3203V28H76.1328V15.3203H78.3125ZM75.9688 11.957C75.9688 11.6055 76.0742 11.3086 76.2852 11.0664C76.5039 10.8242 76.8242 10.7031 77.2461 10.7031C77.6602 10.7031 77.9766 10.8242 78.1953 11.0664C78.4219 11.3086 78.5352 11.6055 78.5352 11.957C78.5352 12.293 78.4219 12.582 78.1953 12.8242C77.9766 13.0586 77.6602 13.1758 77.2461 13.1758C76.8242 13.1758 76.5039 13.0586 76.2852 12.8242C76.0742 12.582 75.9688 12.293 75.9688 11.957ZM85.1484 10V28H82.9688V10H85.1484ZM91.9844 10V28H89.8047V10H91.9844ZM95.8906 21.8008V21.5312C95.8906 20.6172 96.0234 19.7695 96.2891 18.9883C96.5547 18.1992 96.9375 17.5156 97.4375 16.9375C97.9375 16.3516 98.543 15.8984 99.2539 15.5781C99.9648 15.25 100.762 15.0859 101.645 15.0859C102.535 15.0859 103.336 15.25 104.047 15.5781C104.766 15.8984 105.375 16.3516 105.875 16.9375C106.383 17.5156 106.77 18.1992 107.035 18.9883C107.301 19.7695 107.434 20.6172 107.434 21.5312V21.8008C107.434 22.7148 107.301 23.5625 107.035 24.3438C106.77 25.125 106.383 25.8086 105.875 26.3945C105.375 26.9727 104.77 27.4258 104.059 27.7539C103.355 28.0742 102.559 28.2344 101.668 28.2344C100.777 28.2344 99.9766 28.0742 99.2656 27.7539C98.5547 27.4258 97.9453 26.9727 97.4375 26.3945C96.9375 25.8086 96.5547 25.125 96.2891 24.3438C96.0234 23.5625 95.8906 22.7148 95.8906 21.8008ZM98.0586 21.5312V21.8008C98.0586 22.4336 98.1328 23.0312 98.2812 23.5938C98.4297 24.1484 98.6523 24.6406 98.9492 25.0703C99.2539 25.5 99.6328 25.8398 100.086 26.0898C100.539 26.332 101.066 26.4531 101.668 26.4531C102.262 26.4531 102.781 26.332 103.227 26.0898C103.68 25.8398 104.055 25.5 104.352 25.0703C104.648 24.6406 104.871 24.1484 105.02 23.5938C105.176 23.0312 105.254 22.4336 105.254 21.8008V21.5312C105.254 20.9062 105.176 20.3164 105.02 19.7617C104.871 19.1992 104.645 18.7031 104.34 18.2734C104.043 17.8359 103.668 17.4922 103.215 17.2422C102.77 16.9922 102.246 16.8672 101.645 16.8672C101.051 16.8672 100.527 16.9922 100.074 17.2422C99.6289 17.4922 99.2539 17.8359 98.9492 18.2734C98.6523 18.7031 98.4297 19.1992 98.2812 19.7617C98.1328 20.3164 98.0586 20.9062 98.0586 21.5312ZM114.363 25.75L117.621 15.3203H119.051L118.77 17.3945L115.453 28H114.059L114.363 25.75ZM112.172 15.3203L114.949 25.8672L115.148 28H113.684L110.004 15.3203H112.172ZM122.168 25.7852L124.816 15.3203H126.973L123.293 28H121.84L122.168 25.7852ZM119.367 15.3203L122.555 25.5742L122.918 28H121.535L118.125 17.3711L117.844 15.3203H119.367Z" fill="#333333"/>
</svg>
