<svg width="175" height="175" viewBox="0 0 175 175" fill="none" xmlns="http://www.w3.org/2000/svg">
<path d="M87.5 0L95.0971 44.4147L117.427 5.2769L109.375 49.6114L143.744 20.471L121.014 59.3781L163.278 43.75L128.612 72.5367L173.671 72.3058L131.25 87.5L173.671 102.694L128.612 102.463L163.278 131.25L121.014 115.622L143.744 154.529L109.375 125.389L117.427 169.723L95.0971 130.585L87.5 175L79.9029 130.585L57.5733 169.723L65.625 125.389L31.2561 154.529L53.9855 115.622L11.7228 131.25L46.3884 102.463L1.32932 102.694L43.75 87.5L1.32932 72.3058L46.3884 72.5367L11.7228 43.75L53.9855 59.3781L31.2561 20.471L65.625 49.6114L57.5733 5.2769L79.9029 44.4147L87.5 0Z" fill="#ECE8D9"/>
</svg>
